<svg xmlns="http://www.w3.org/2000/svg" viewBox="0 0 612 2042"><defs><style>.cls-1,.cls-6{fill:#231f20;}.cls-2{fill:none;stroke:#07b26b;stroke-miterlimit:10;stroke-width:5px;}.cls-3{font-size:36px;}.cls-15,.cls-3,.cls-5{fill:#fff;}.cls-15,.cls-3,.cls-6{font-family:Haettenschweiler;}.cls-4{fill:#07b26b;}.cls-6{font-size:28px;}.cls-7{fill:#b37652;}.cls-8{fill:#010101;}.cls-9{fill:#efab97;}.cls-10{fill:#ce7549;opacity:0.78;}.cls-11{fill:#ce713c;}.cls-12{fill:#d9b0a5;}.cls-13{fill:#af8f89;opacity:0.43;}.cls-14{fill:#fef492;}.cls-15{font-size:32px;}.cls-16{fill:#54ba5d;}</style></defs><title>spotify-infographic</title><g id="bg"><rect class="cls-1" width="612" height="2042"/></g><g id="Layer_2" data-name="Layer 2"><line class="cls-2" x1="306" y1="217" x2="306" y2="1511.5"/><line class="cls-2" x1="306" y1="217" x2="161.79" y2="217"/><line class="cls-2" x1="450.21" y1="360" x2="306" y2="360"/><text class="cls-3" transform="translate(139.31 119)">TOP 10 MOST STREAMED SONGS</text><rect class="cls-4" x="70.12" y="196" width="92" height="42" rx="21"/><rect class="cls-4" x="450" y="339" width="92" height="42" rx="21"/><line class="cls-2" x1="306" y1="504" x2="161.79" y2="504"/><rect class="cls-4" x="69.79" y="483" width="92" height="42" rx="21"/><line class="cls-2" x1="450.21" y1="648" x2="306" y2="648"/><rect class="cls-4" x="450" y="627" width="92" height="42" rx="21"/><circle class="cls-5" cx="306" cy="217" r="17"/><circle class="cls-5" cx="305" cy="360" r="17"/><circle class="cls-5" cx="307" cy="504" r="17"/><circle class="cls-5" cx="306" cy="648" r="17"/><line class="cls-2" x1="306" y1="792" x2="161.79" y2="792"/><rect class="cls-4" x="69.79" y="771" width="92" height="42" rx="21"/><circle class="cls-5" cx="306" cy="792" r="17"/><line class="cls-2" x1="450.21" y1="936" x2="306" y2="936"/><rect class="cls-4" x="450.21" y="915" width="92" height="42" rx="21"/><circle class="cls-5" cx="306" cy="936" r="17"/><line class="cls-2" x1="306" y1="1080" x2="161.79" y2="1080"/><rect class="cls-4" x="69.79" y="1059" width="92" height="42" rx="21"/><circle class="cls-5" cx="306" cy="1080" r="17"/><line class="cls-2" x1="449.21" y1="1224" x2="305" y2="1224"/><rect class="cls-4" x="449.21" y="1203" width="92" height="42" rx="21"/><circle class="cls-5" cx="305" cy="1224" r="17"/><line class="cls-2" x1="306" y1="1368" x2="161.79" y2="1368"/><rect class="cls-4" x="69.79" y="1347" width="92" height="42" rx="21"/><circle class="cls-5" cx="306" cy="1368" r="17"/><line class="cls-2" x1="450.21" y1="1512" x2="306" y2="1512"/><rect class="cls-4" x="450.21" y="1491" width="92" height="42" rx="21"/><circle class="cls-5" cx="306" cy="1512" r="17"/><text class="cls-6" transform="translate(301.58 226.33)">1</text><text class="cls-6" transform="translate(300.07 369.33)">2</text><text class="cls-6" transform="translate(301.75 514)">3</text><text class="cls-6" transform="translate(299.83 657)">4</text><text class="cls-6" transform="translate(300.24 802)">5</text><text class="cls-6" transform="translate(300.75 945.5)">6</text><text class="cls-6" transform="translate(300.74 1090.5)">7</text><text class="cls-6" transform="translate(299.71 1233)">8</text><text class="cls-6" transform="translate(300.19 1377)">9</text><text class="cls-6" transform="translate(296.65 1521.5)">10</text><polygon class="cls-5" points="127.14 217 104.64 204.01 104.64 229.99 127.14 217"/><polygon class="cls-5" points="511.14 360 488.64 347.01 488.64 372.99 511.14 360"/><polygon class="cls-5" points="127.14 504 104.64 491.01 104.64 516.99 127.14 504"/><polygon class="cls-5" points="511.14 648 488.64 635.01 488.64 660.99 511.14 648"/><polygon class="cls-5" points="131.14 792 108.64 779.01 108.64 804.99 131.14 792"/><polygon class="cls-5" points="511.14 936 488.64 923.01 488.64 948.99 511.14 936"/><polygon class="cls-5" points="131.14 1080 108.64 1067.01 108.64 1092.99 131.14 1080"/><polygon class="cls-5" points="511.14 1224 488.64 1211.01 488.64 1236.99 511.14 1224"/><polygon class="cls-5" points="131.14 1368 108.64 1355.01 108.64 1380.99 131.14 1368"/><polygon class="cls-5" points="510.14 1512 487.64 1499.01 487.64 1524.99 510.14 1512"/><path class="cls-7" d="M292.47,1862.89c-3.06-8-9.82-7.88-9.82-7.88l-10.57-1c-7.14-1.4-8.93-5.22-8.93-5.22a7.36,7.36,0,0,1-.63-5.74,5.75,5.75,0,0,1,1.53-3.19c1.4-1.53-2.94-2.55-2.94-2.55-2.8-.5-3.18-3.56-3.18-3.56-.38-3.19,2.55-5.1,2.55-5.1a5.72,5.72,0,0,1-3.32-6.25,34.5,34.5,0,0,1,2.17-5.73,8.17,8.17,0,0,1-6.75-4.84c-.39-3.7,4.46-9.18,4.46-9.18l5.35-6.76a8.5,8.5,0,0,0,2.17-5.73,2.48,2.48,0,0,0-1.66-2.68c-1.15-.63,1.15-6.5,1.15-6.5l2.54-6.5a20.38,20.38,0,0,1,2.3-6.5c1-1.78,2.42-4.71,2.42-4.71-.25-5.87,5.48-9.82,5.48-9.82,3.95-3.18,14.66-6.11,14.66-6.11a99.1,99.1,0,0,1,28.67-2C341,1748,348,1758.66,348,1758.66a45.83,45.83,0,0,1,9.31,20.52c1.4,6.24,0,13.51,0,13.51a125.12,125.12,0,0,1-5.1,16.06l-2.17,6.5c-3.06,5.09-3.31,16.69-3.31,16.69a101.51,101.51,0,0,0,.64,13.89c1.65,11.6,3.57,17.06,3.57,17.06Z"/><path class="cls-8" d="M259.33,1816.65l-1.73,4.22,4.41,4.06c2.67,2.17,3.69,2.93,3.69,2.93a22.14,22.14,0,0,0,2.17,11.47c-.38,1.79-4.51,1.4-4.51,1.4l-.84,2.3-.3,2.42.51,2.41,1.1,1.89,2.25,2,1.79,1,2.77,1,3.23.5,3.43.33,3.07.3,3.45.34,2.09.6c7.19-3,13.06-10,13.06-10a41.57,41.57,0,0,0,6.29-24.35c.08-3.95-1.58-12.61-1.58-12.61a35.8,35.8,0,0,1,1.67-12.11,50.47,50.47,0,0,1,7.38-3.7c4.08-3.82,7.39-4.2,7.39-4.2,6.63-.26,8.67,6.24,8.67,6.24,1.91,7.14,0,11.09,0,11.09a74.88,74.88,0,0,0,7.65,20.39c7.13,7.39,10.28,8.8,10.28,8.8l.41-8.53,1.08-6.5,2.76-7.66,3.24-9.2,1.88-6,1.52-6.46c1.26-7.15-.92-14.86-.92-14.86-4.07-14.21-9.06-18-9.06-18-4.44-6.21-14.72-9.76-14.72-9.76l-9.25-2.52-2.91-.47-4.57-.32H310l-8,.58-8.12,1.2-4.51,1.11-2.84.93-2.77,1-2.6,1.08-1.74.84-3.14,2-2.37,2.38-1.83,3-.76,3.28c8.28-5.11,25.49-7.78,25.49-7.78-19.12,5.61-20,6.37-20,6.37l12.75.77-6.12,12.36c-.51,1.53,1.4,3.06,1.4,3.06,14.4,9.43,13.76,17.46,13.76,17.46-.89,18-8.66,27.27-8.66,27.27-6,7.65-19.76,13-19.76,13-1.91-7.14-.63-9.81-.63-9.81-6.76-4.46-6.89-8.92-6.89-8.92Z"/><path class="cls-9" d="M111.78,1838.17c4.49,14.14,12.29,21.41,12.29,21.41,10.05,8.73,16.93,10.18,16.93,10.18,9.51,1.32,18.11-3.57,18.11-3.57,12.29-6.21,17-20,17-20,3.7-8.46,3.84-12.29,3.84-12.29a11.12,11.12,0,0,0,4.89-3.71c3.7.27,4.49-1.71,4.49-1.71,3-1.59,3-6.88,3-6.88l-.92-2.64a4.16,4.16,0,0,0,4-3.18c.66-4-3-6.34-3-6.34.13-3-3.17-5.16-3.17-5.16,3.17-2.77,3.7-4.49,3.7-4.49a13.94,13.94,0,0,0-4.89,0c2.51-3.18,2.51-8.46,2.51-8.46-2.11-1.33-3,0-3,0,1.72-4.76-1.19-9.26-1.19-9.26l-6.74-5.42c5.42-2.11-.93-8.33-.93-8.33-2.38-3.17-4.62,0-4.62,0-.93-6.47-5-6.87-5-6.87-2-2.51-7.27-3.31-7.27-3.31l7.67-7.8c-4-.13-10.71,7.14-10.71,7.14-.26-5.15-3.7-10.31-3.7-10.31-4,2-5.82,7.54-5.82,7.54-3.43-2-8.85-1.85-8.85-1.85a27.66,27.66,0,0,1,8.72-4.76c-5-1.85-14.67,5.29-14.67,5.29a83.82,83.82,0,0,1,4.89-8.07c-4,1.59-11,10.58-11,10.58-3.7-.4-8.85,4.62-8.85,4.62-4.89-.92-7.67,9.13-7.67,9.13-4.36,2.51-5.16,9.65-5.16,9.65l-6.21,10.7c-2.51,1.46-2.38,11.24-2.38,11.24-2.91,4.36,1.46,6.39,1.46,6.39-3.44,1.28-3.18,7-3.18,7-.79,3.5,3.18,6.68,3.18,6.68,4.09,4.36,7.13,4.89,7.13,4.89C108.74,1830.37,111.78,1838.17,111.78,1838.17Z"/><path class="cls-10" d="M110.06,1830.17c.2,8.13,6.94,20.82,6.94,20.82,5,9.72,11.3,13.88,11.3,13.88,10.12,5.16,17.85,5.55,17.85,5.55,12.49-.79,16.66-6,16.66-6a97,97,0,0,0,12.49-14.17c3.57-6,4.36-16.36,4.36-16.36,1.79-15.67,1.39-18.25,1.39-18.25-3-3.77-3.57,5.16-3.57,5.16l-1,10.71c-2,3.76-7.14,7.13-7.14,7.13a39.47,39.47,0,0,0-4.76,11.31c-.79-10.51-2.57-14.48-2.57-14.48-7.34-.39-13.29-.2-13.29-.2l-3.15,2.18,3.35,3.77c4.36-1.58,10.51-1.39,10.51-1.39,2,4-3.37,11.7-3.37,11.7-4.76,3.77-11.9,4.76-11.9,4.76-4.56.8-11.7-3-11.7-3l-2.18-5.75c0-4.56,1.78-5.95,1.78-5.95,5.36-.79,11.31-2,11.31-2,2.2-2.19-2-4-2-4-8.52.4-10.9,2.78-10.9,2.78-4,3.17-4,12.89-4,12.89-9.91-11.7-10.71-19.44-10.71-19.44-3.37-9.52-4.76-13.68-4.76-13.68Z"/><path class="cls-11" d="M110.23,1846c2.78-7.55,1.32-35.24,1.32-35.24l3.08,3.46,3.37-5.82v5.51c8.66-16.36,17.9-23.29,17.9-23.29l9.24-7.23a78.29,78.29,0,0,1-10.56,14.47c11.15-2.67,16.72-12.58,16.72-12.58-5.87,11.48-10.86,14.78-10.86,14.78,15.55-4.4,21.86-21.55,21.86-21.55-1.76,6.29-7.19,17-7.19,17,5.28-.31,14.67-14,14.67-14-6.3,14-8.95,17-8.95,17,12.33-7.24,16.43-11.64,16.43-11.64-.88,6.92-6.3,14.94-6.3,14.94,7.63-.63,9.24-3.3,9.24-3.3A25.7,25.7,0,0,0,178,1810c3.52,3.47,4.11,9.44,4.11,9.44-1.62,5.35,2.64,12.12,2.64,12.12,6.3,4.72,9.24,1.57,9.24,1.57,4.84-4.09,3.08-6.45,3.08-6.45l-3.82-1.73a14,14,0,0,0,7.05-5.66,6.58,6.58,0,0,1-5.58-5.35c6-.63,6.16-3.31,6.16-3.31-5.57-2.36-6-7.08-6-7.08,4.69-7.39,2.49-10.85,2.49-10.85,1-6.14-5.13-10.38-5.13-10.38-.15-7.56-6.9-12.12-6.9-12.12l5.14-2.2h-6.6c6.45-3.46,0-9.12,0-9.12-7.05-7.24-9.83,0-9.83,0,2.2-8.19-5.58-8-5.58-8,.59-5.82,6-10.85,6-10.85-6,1.26-9.83,9.75-9.83,9.75,2.64-10.38,5.28-14.79,5.28-14.79-5.43,2.83-6.6,4.09-6.6,4.09l-.29,9.76a77.91,77.91,0,0,0-5.14-13.06c-5.28,5.66,1.32,11.64,1.32,11.64l-7.77-2.67a88.39,88.39,0,0,1,6.6-14.3c-6.9,2-12.47,15.08-12.47,15.08-2.2-12.43-5.43-11.8-5.43-11.8.73,4.57,2.2,11,2.2,11-7.92-10.54-9.39-7.87-9.39-7.87l6.6,8.5-6.89-1.11c-2.93-3.61-1.17-12.74-1.17-12.74-3.82,4.09-5.29,16.36-5.29,16.36-6-.31-14.66,6.3-14.66,6.3a37.58,37.58,0,0,0,6.45-.48c-13.2,7.08-12.91,10.86-12.91,10.86-.15,2.52-7.33,8-7.33,8-2.35,1.26-.74,6.92-.74,6.92-3.52,3-2.34,8.75-2.34,8.75-4.7,3.84,2,10,2,10-2.93,3.14-5.43.31-5.43.31.44,3.78,4.4,6.77,4.4,6.77a16.93,16.93,0,0,0-5.87,3.3,43.19,43.19,0,0,1,5.87,2,14.56,14.56,0,0,0-3.22,9.29,11.72,11.72,0,0,1,4.69,4.56c2.93-.63,4.84,5.35,4.84,5.35,3.52,0,3.37,4.87,3.37,4.87-5.13,1.58-5.13,7.08-5.13,7.08l6.45-5.82Z"/><path class="cls-12" d="M476.41,1871,430,1866a52.74,52.74,0,0,0,3.23-26.18l-2.44-17.8L426,1806.07l-4-8.61-2.91-17.13,1.89-13.4,5.36-9.76,7-7.31,16.4-5.29,20.94-2.26,9.56,1.51,8.66,3.77,12.45,1.59,6,4.46,3.33,6.2-.13,6.71-.93,5-3.18,3.53h0c4.78,5.54,3.41,17.12,3.41,17.12,1.14,9.57-2.05,10.83-2.05,10.83l.91,3.65,5.69,9.45c5.7,5.29,3,7.55,3,7.55-2.27,4-5,3-5,3-4.1,1.52-3,4.79-3,4.79,2.5,3,1.43,5.29,1.43,5.29-1.43,2.27-7.81,3.52-7.81,3.52,6.6,0,5.92,1.52,5.92,1.52a3.36,3.36,0,0,1-2.5,4.19c-3.65,2.52-1.07,6.22-1.07,6.22,2.43,7-5.92,9.57-5.92,9.57a97.41,97.41,0,0,1-17-1.18A85.85,85.85,0,0,0,476.41,1871Z"/><path class="cls-13" d="M433.13,1843.78c-.65-29-11.65-47.27-11.65-47.27-3.73-15.34-3.34-23.9-3.34-23.9,4.19-16.91,14.34-23.78,14.34-23.78,9.7-5.35,16.27-5.4,16.27-5.4,2-5,6.32-3.57,6.32-3.57,2.24-4,14.51,1.16,14.51,1.16,8.37-1.82,9.52,1.45,9.52,1.45,5.21-1,8.64,3.72,8.64,3.72,13.12-1.6,18.39,5.92,18.39,5.92,6.13,3.23,2.38,17.86,2.38,17.86,1.4,5.28-3.14,3.55-3.14,3.55-4.59-7.77-5.24-4.24-5.24-4.24,1.4,5.78-2.45,6.06-2.45,6.06-6.34,1.05-10.21-1.19-10.21-1.19,1.18,7,2.36,12.83,2.36,12.83l-9.94,3.84c-6.51,8.61-4.12,27.23-4.12,27.23l-5,1.55c-2.84-18.12-13.27-19.81-13.27-19.81-7.49-1.71-9.26,3.59-9.26,3.59-1.95,12.86-1.69,18.9-1.69,18.9-1.07,9.08-4.21,12.62-4.21,12.62C436.52,1843,433.13,1843.78,433.13,1843.78Z"/><path class="cls-14" d="M442.25,1822.21c5.81-5,12.81-26.75,12.81-26.75,16.44-13.85,22-25.81,22-25.81a68.36,68.36,0,0,0,11.84,9.13c11.12,1.89,12.81-6.93,12.81-6.93,4.11,5.67,7,7.56,7,7.56,8.21-9.44-1.45-29.27-1.45-29.27-14.75-8.18-21.27-7.87-21.27-7.87-15.95-6.92-21.27-6-21.27-6a55.65,55.65,0,0,0-11.12-6.29,26.84,26.84,0,0,1,4.11,8.5c-5.8-.32-7.25-8.5-7.25-8.5,1.45,8.18,1,10.38,1,10.38l-11.6,3.78c-13.29,5-21.27,22-21.27,22-5.32,26.43-3.14,30.53-3.14,30.53,4.59-6.61,5.32-16.37,5.32-16.37-1,11.64-2.42,16.37-2.42,16.37,5.8-5.35,6.52-11,6.52-11-.72,10.39-2.9,15.42-2.9,15.42,8-10.38,5.32-.63,5.32-.63l4.11-8.5-3.63,21.09c4.6-8.81,6.29-21.4,6.29-21.4a54,54,0,0,1-2.9,22.66,116.31,116.31,0,0,0,8.21-22.66c-1.69,11.64-5.07,25.81-5.07,25.81l8-26.12c.49,9.44-2.65,19.51-2.65,19.51l8.7-16.37c.24,10.39-2.18,17-2.18,17"/><text class="cls-15" transform="translate(66.93 1703)">ARTISTS WITH MORE THAN ONE SONG IN THE TOP 10</text></g><g id="Layer_3" data-name="Layer 3"><path class="cls-16" d="M266.1,45.15c-7.38-4.38-19.56-4.78-26.6-2.64a2.14,2.14,0,0,1-1.25-4.1c8.09-2.46,21.54-2,30,3.06a2.14,2.14,0,1,1-2.18,3.68Zm-.24,6.5a1.8,1.8,0,0,1-2.46.59c-6.15-3.79-15.54-4.88-22.82-2.67a1.79,1.79,0,0,1-1-3.42c8.31-2.52,18.65-1.3,25.72,3a1.8,1.8,0,0,1,.59,2.46Zm-2.81,6.23a1.42,1.42,0,0,1-2,.48c-5.37-3.29-12.14-4-20.11-2.21a1.43,1.43,0,0,1-.64-2.78c8.72-2,16.21-1.14,22.24,2.55a1.42,1.42,0,0,1,.47,2Zm-10.5-33a22.9,22.9,0,1,0,22.9,22.89,22.89,22.89,0,0,0-22.9-22.89Z"/><path class="cls-16" d="M292,46c-3.95-.94-4.66-1.6-4.66-3s1.24-2.2,3.08-2.2a8.94,8.94,0,0,1,5.4,2.06.28.28,0,0,0,.2,0,.27.27,0,0,0,.17-.1l1.93-2.72a.27.27,0,0,0-.05-.36,11.67,11.67,0,0,0-7.59-2.63c-4.27,0-7.25,2.57-7.25,6.23,0,3.93,2.57,5.32,7,6.4,3.78.87,4.42,1.6,4.42,2.9,0,1.45-1.29,2.35-3.37,2.35a9.11,9.11,0,0,1-6.3-2.6.22.22,0,0,0-.19-.06.2.2,0,0,0-.17.09L282.42,55a.25.25,0,0,0,0,.36,12.89,12.89,0,0,0,8.71,3.35c4.6,0,7.57-2.52,7.57-6.41,0-3.29-2-5.1-6.78-6.28Z"/><path class="cls-16" d="M312.48,50.4c0,2.78-1.71,4.71-4.16,4.71a4.4,4.4,0,0,1-4.25-4.71,4.4,4.4,0,0,1,4.25-4.71c2.41,0,4.16,2,4.16,4.71Zm-3.34-8.3a6.21,6.21,0,0,0-5,2.39V42.68a.26.26,0,0,0-.26-.26h-3.54a.26.26,0,0,0-.25.26V62.8a.25.25,0,0,0,.25.26h3.54a.25.25,0,0,0,.26-.26V56.45a6.38,6.38,0,0,0,5,2.25c3.7,0,7.46-2.85,7.46-8.3s-3.76-8.3-7.46-8.3Z"/><path class="cls-16" d="M326.21,55.14a4.5,4.5,0,0,1-4.45-4.74,4.39,4.39,0,0,1,4.39-4.68,4.51,4.51,0,0,1,4.48,4.74,4.41,4.41,0,0,1-4.42,4.68Zm0-13a8.32,8.32,0,1,0,8.48,8.3,8.35,8.35,0,0,0-8.48-8.3Z"/><path class="cls-16" d="M344.88,42.42H341v-4a.26.26,0,0,0-.26-.26h-3.54a.26.26,0,0,0-.26.26v4h-1.7a.26.26,0,0,0-.26.26v3a.26.26,0,0,0,.26.26h1.7v7.87c0,3.18,1.59,4.8,4.71,4.8a6.46,6.46,0,0,0,3.31-.83.24.24,0,0,0,.14-.22V54.7a.26.26,0,0,0-.13-.22.25.25,0,0,0-.25,0,4.49,4.49,0,0,1-2.08.5c-1.13,0-1.64-.52-1.64-1.67V46h3.9a.26.26,0,0,0,.25-.26v-3a.26.26,0,0,0-.25-.26Z"/><path class="cls-16" d="M358.45,42.43V42c0-1.44.55-2.09,1.79-2.09a6,6,0,0,1,2,.37.26.26,0,0,0,.24,0,.28.28,0,0,0,.1-.21V37a.27.27,0,0,0-.18-.25,10,10,0,0,0-2.94-.42c-3.27,0-5,1.84-5,5.32v.75h-1.7a.26.26,0,0,0-.26.26v3.06a.26.26,0,0,0,.26.26h1.7V58.12a.25.25,0,0,0,.26.26h3.54a.26.26,0,0,0,.26-.26V46h3.3l5.06,12.14c-.57,1.27-1.14,1.53-1.91,1.53A4.16,4.16,0,0,1,363,59.1a.22.22,0,0,0-.21,0,.26.26,0,0,0-.15.14l-1.2,2.63a.25.25,0,0,0,.11.33,7.48,7.48,0,0,0,3.78,1c2.62,0,4.06-1.22,5.34-4.49l6.14-15.87a.26.26,0,0,0,0-.24.27.27,0,0,0-.21-.12h-3.69a.25.25,0,0,0-.24.18l-3.78,10.78L364.74,42.6a.27.27,0,0,0-.25-.17Z"/><path class="cls-16" d="M350.58,42.42H347a.26.26,0,0,0-.26.26V58.12a.26.26,0,0,0,.26.26h3.54a.26.26,0,0,0,.26-.26V42.68a.26.26,0,0,0-.26-.26Z"/><path class="cls-16" d="M348.83,35.39a2.54,2.54,0,1,0,2.54,2.53,2.54,2.54,0,0,0-2.54-2.53Z"/><path class="cls-16" d="M380,44h-.64v.82H380c.33,0,.52-.16.52-.41S380.31,44,380,44Zm.43,1.17.7,1h-.59l-.64-.9h-.54v.9h-.5V43.51H380c.6,0,1,.31,1,.83a.77.77,0,0,1-.6.79Zm-.56-2.49a2.25,2.25,0,1,0,2.23,2.24,2.23,2.23,0,0,0-2.23-2.24Zm0,4.74a2.5,2.5,0,1,1,2.5-2.5,2.48,2.48,0,0,1-2.5,2.5Z"/></g></svg>